<svg xmlns="http://www.w3.org/2000/svg" width="874.38" height="95.02" viewBox="0 0 874.38 95.02"><defs><style>.a{fill:#5b6c7c;}.b,.c,.d{fill:#5d6a7b;}.b,.c{stroke:#5d6a7b;stroke-linecap:round;stroke-linejoin:round;}.b{stroke-width:0.33px;}.c{stroke-width:0.31px;}.e{fill:#37bfcc;}</style></defs><path class="a" d="M2.83,84.26a2.8,2.8,0,0,1-2.07-.77A2.79,2.79,0,0,1,0,81.42V47.11A20.41,20.41,0,0,1,2.73,36.9a19.3,19.3,0,0,1,7.19-7.16,20.06,20.06,0,0,1,10.21-2.62,20.44,20.44,0,0,1,10.4,2.65A19.54,19.54,0,0,1,37.76,37,20.34,20.34,0,0,1,40.42,47.4a20.65,20.65,0,0,1-2.59,10.32,19.06,19.06,0,0,1-17,9.89A18.76,18.76,0,0,1,12,65.54,17.54,17.54,0,0,1,5.6,60.05V81.42a2.8,2.8,0,0,1-.77,2.07A2.7,2.7,0,0,1,2.83,84.26Zm17.3-21.74a14.64,14.64,0,0,0,7.56-2A14.08,14.08,0,0,0,33,55.14a15.54,15.54,0,0,0,1.93-7.74A15.51,15.51,0,0,0,33,39.62a14.41,14.41,0,0,0-12.83-7.41A14.31,14.31,0,0,0,7.41,39.62,15.81,15.81,0,0,0,5.52,47.4a15.84,15.84,0,0,0,1.89,7.74,13.87,13.87,0,0,0,5.24,5.42A14.48,14.48,0,0,0,20.13,62.52Z"/><path class="a" d="M69.49,67.61A20.49,20.49,0,0,1,59.1,65a18.91,18.91,0,0,1-7.2-7.19,20.55,20.55,0,0,1-2.62-10.4A20.65,20.65,0,0,1,51.9,36.94a18.86,18.86,0,0,1,7.2-7.2,20.49,20.49,0,0,1,10.39-2.62,20.32,20.32,0,0,1,10.36,2.62A19,19,0,0,1,87,36.94,21.31,21.31,0,0,1,89.7,47.4,20.37,20.37,0,0,1,87,57.8,19.23,19.23,0,0,1,79.85,65,20.32,20.32,0,0,1,69.49,67.61Zm0-5.09a14.64,14.64,0,0,0,7.56-2,13.94,13.94,0,0,0,5.23-5.38,15.81,15.81,0,0,0,1.89-7.78,16,16,0,0,0-1.89-7.81,13.91,13.91,0,0,0-5.23-5.42,15.56,15.56,0,0,0-15.12,0,14.15,14.15,0,0,0-5.27,5.42,15.78,15.78,0,0,0-1.93,7.81,15.61,15.61,0,0,0,1.93,7.78,14.18,14.18,0,0,0,5.27,5.38A14.64,14.64,0,0,0,69.49,62.52Z"/><path class="a" d="M107.43,67.25a2.84,2.84,0,0,1-1.67-.51,2.78,2.78,0,0,1-1-1.31l-11.34-34a4.32,4.32,0,0,1,.08-2.87,2,2,0,0,1,2-1.05,2.89,2.89,0,0,1,1.67.5,3,3,0,0,1,1.09,1.6l10.11,30.9h-1.6l9.38-30.82a3.42,3.42,0,0,1,1-1.57,2.57,2.57,0,0,1,1.78-.61,2.65,2.65,0,0,1,1.78.58,3.14,3.14,0,0,1,1,1.6l8.94,30.09h-1.23l9.88-30.17a2.7,2.7,0,0,1,2.69-2.1,2.2,2.2,0,0,1,2.18,1.19,3.32,3.32,0,0,1,0,2.73l-11.34,34a2.77,2.77,0,0,1-1,1.31,2.68,2.68,0,0,1-1.63.51,3,3,0,0,1-1.71-.51,2.25,2.25,0,0,1-1-1.31l-9.16-30.38h.87l-9.16,30.38a2.43,2.43,0,0,1-1,1.34A2.84,2.84,0,0,1,107.43,67.25Z"/><path class="a" d="M168.78,67.61A20.77,20.77,0,0,1,158.35,65a18.56,18.56,0,0,1-7.12-7.16,20.94,20.94,0,0,1-2.58-10.47,21.93,21.93,0,0,1,2.43-10.5,18.23,18.23,0,0,1,16.61-9.78,18.09,18.09,0,0,1,9.63,2.51,16.94,16.94,0,0,1,6.36,6.94,21.93,21.93,0,0,1,2.26,10.11,2.45,2.45,0,0,1-.73,1.85,2.62,2.62,0,0,1-1.89.69H152.43V44.57H183.9l-3.12,2.25a16.69,16.69,0,0,0-1.53-7.56A12.47,12.47,0,0,0,174.71,34a12.72,12.72,0,0,0-7-1.89,13.39,13.39,0,0,0-7.27,2,13.11,13.11,0,0,0-4.83,5.42,17.52,17.52,0,0,0-1.71,7.88,15.62,15.62,0,0,0,1.93,7.85,14.18,14.18,0,0,0,5.27,5.38,14.92,14.92,0,0,0,7.7,2,16.31,16.31,0,0,0,5.27-.9,13,13,0,0,0,4.26-2.29,2.89,2.89,0,0,1,1.81-.69,2.53,2.53,0,0,1,1.75.54,2.71,2.71,0,0,1,1,1.89,2.13,2.13,0,0,1-.84,1.75,19.75,19.75,0,0,1-6.1,3.37A20.81,20.81,0,0,1,168.78,67.61Z"/><path class="a" d="M198.15,67.25a2.8,2.8,0,0,1-2-.73,2.76,2.76,0,0,1-.72-2V30.25a2.51,2.51,0,0,1,2.76-2.76,2.52,2.52,0,0,1,2.76,2.76V64.48a2.72,2.72,0,0,1-.73,2A2.75,2.75,0,0,1,198.15,67.25Zm-.44-24.5a17.07,17.07,0,0,1,2.37-8.07,15.87,15.87,0,0,1,5.59-5.6,14.88,14.88,0,0,1,7.67-2,11.4,11.4,0,0,1,5.16.94,2.29,2.29,0,0,1,1.38,2.77,2.14,2.14,0,0,1-1,1.45,3.06,3.06,0,0,1-1.67.29c-.65,0-1.39-.1-2.22-.14a16.05,16.05,0,0,0-7.23.83,11,11,0,0,0-5,3.67,9.52,9.52,0,0,0-1.86,5.89Z"/><path class="a" d="M243.8,67.61A20.74,20.74,0,0,1,233.37,65a18.58,18.58,0,0,1-7.13-7.16,20.94,20.94,0,0,1-2.58-10.47,21.82,21.82,0,0,1,2.44-10.5,18.32,18.32,0,0,1,6.72-7.16,18.57,18.57,0,0,1,9.89-2.62,18.14,18.14,0,0,1,9.63,2.51,16.94,16.94,0,0,1,6.36,6.94A22.06,22.06,0,0,1,261,46.68a2.45,2.45,0,0,1-.72,1.85,2.65,2.65,0,0,1-1.89.69h-30.9V44.57h31.48l-3.13,2.25a16.69,16.69,0,0,0-1.52-7.56A12.42,12.42,0,0,0,249.72,34a12.69,12.69,0,0,0-7-1.89,13.36,13.36,0,0,0-7.27,2,13,13,0,0,0-4.83,5.42,17.52,17.52,0,0,0-1.71,7.88,15.72,15.72,0,0,0,1.92,7.85,14.25,14.25,0,0,0,5.27,5.38,14.93,14.93,0,0,0,7.71,2,16.35,16.35,0,0,0,5.27-.9,12.89,12.89,0,0,0,4.25-2.29,2.92,2.92,0,0,1,1.82-.69,2.49,2.49,0,0,1,1.74.54,2.67,2.67,0,0,1,1,1.89,2.09,2.09,0,0,1-.83,1.75,19.81,19.81,0,0,1-6.11,3.37A20.75,20.75,0,0,1,243.8,67.61Z"/><path class="a" d="M287.05,67.61A20.18,20.18,0,0,1,276.73,65a19.4,19.4,0,0,1-7.23-7.24,20.31,20.31,0,0,1-2.66-10.39A20.64,20.64,0,0,1,269.42,37a19.09,19.09,0,0,1,17.05-9.89,18.54,18.54,0,0,1,8.79,2.07,17.61,17.61,0,0,1,6.33,5.49V13.31a2.7,2.7,0,0,1,.8-2.07,3.1,3.1,0,0,1,4.07,0,2.74,2.74,0,0,1,.8,2.07V47.62a21,21,0,0,1-2.8,10.21,19.4,19.4,0,0,1-7.2,7.16A20,20,0,0,1,287.05,67.61Zm0-5.09a14.17,14.17,0,0,0,7.52-2,14.55,14.55,0,0,0,5.24-5.41,15.61,15.61,0,0,0,1.92-7.78,15.64,15.64,0,0,0-1.92-7.74,14.16,14.16,0,0,0-12.76-7.38,14.52,14.52,0,0,0-7.49,2,14.37,14.37,0,0,0-5.3,5.42,16.27,16.27,0,0,0,0,15.52,14.63,14.63,0,0,0,5.3,5.41A14.26,14.26,0,0,0,287.05,62.52Z"/><path class="a" d="M361.77,67.61A20,20,0,0,1,351.56,65a19.4,19.4,0,0,1-7.2-7.16,20.48,20.48,0,0,1-2.72-10.21V13.31a2.62,2.62,0,0,1,2.83-2.83,2.69,2.69,0,0,1,2,.76,2.8,2.8,0,0,1,.77,2.07V34.68a17.46,17.46,0,0,1,6.36-5.49,18.76,18.76,0,0,1,8.83-2.07,19.06,19.06,0,0,1,17,9.89,20.64,20.64,0,0,1,2.58,10.32,20.31,20.31,0,0,1-2.65,10.39A19.54,19.54,0,0,1,372.17,65,20.34,20.34,0,0,1,361.77,67.61Zm0-5.09a14.41,14.41,0,0,0,12.83-7.41,15.51,15.51,0,0,0,1.93-7.78,15.54,15.54,0,0,0-1.93-7.74,14.15,14.15,0,0,0-5.27-5.42,14.64,14.64,0,0,0-7.56-2,14.48,14.48,0,0,0-7.48,2,13.93,13.93,0,0,0-5.24,5.42,15.84,15.84,0,0,0-1.89,7.74,15.81,15.81,0,0,0,1.89,7.78,14.31,14.31,0,0,0,12.72,7.41Z"/><path class="a" d="M405.75,66a2.64,2.64,0,0,1-2,.18,2.8,2.8,0,0,1-1.52-1.41L386,31.19a2.52,2.52,0,0,1-.15-2,2.67,2.67,0,0,1,1.46-1.46,2.61,2.61,0,0,1,2-.18,2.54,2.54,0,0,1,1.46,1.42L406.7,62.52a3,3,0,0,1,.36,2A2.15,2.15,0,0,1,405.75,66Zm-8.07,18.54a3.67,3.67,0,0,1-1.31-.29c-1.64-.73-2.11-1.89-1.38-3.49L418.47,29A2.39,2.39,0,0,1,422,27.7q2.48,1,1.38,3.42L399.79,82.87A2.32,2.32,0,0,1,397.68,84.55Z"/><path class="b" d="M621.57,24.6a4.06,4.06,0,0,1,3.87,5.28c-.77,2.47-1.6,4.9-2.49,7.31q-2.26,6.16-4.64,12t-4.83,11.2q-1.61,3.45-3.12,6.61A5.9,5.9,0,0,1,605,70.4h0a5.91,5.91,0,0,1-5.33-3.35q-3.84-8-7.74-17.77-3.72-9.3-6.77-19.2a4.24,4.24,0,0,1,4.05-5.48h0a4.25,4.25,0,0,1,4.08,3.07c.56,2,1.18,4,1.85,6.11q1.53,4.84,3.21,9.68t3.4,9.32q1.35,3.51,2.67,6.44a.81.81,0,0,0,1.48,0q1.33-2.94,2.77-6.45c1.21-3,2.42-6.1,3.6-9.32s2.32-6.45,3.41-9.68q1.09-3.24,2-6.27a4,4,0,0,1,3.89-2.91Z"/><path class="b" d="M653.56,23.52q9.29,0,14.32,5.77t5,17.52v.43a2.44,2.44,0,0,1-2.44,2.43H641a.82.82,0,0,0-.82.9q.69,6.45,4.62,9.91c2.79,2.47,6.73,3.71,11.79,3.71a33.53,33.53,0,0,0,7.41-.7l1-.23a3.48,3.48,0,0,1,4.3,2.83v0A3.45,3.45,0,0,1,666.82,70c-.7.2-1.5.41-2.39.61a39,39,0,0,1-8.69.89,27.46,27.46,0,0,1-10.42-1.83,19.91,19.91,0,0,1-11.9-12.53,29.61,29.61,0,0,1-1.48-9.53,27.81,27.81,0,0,1,1.88-10.66,21.82,21.82,0,0,1,4.93-7.5A20.19,20.19,0,0,1,645.67,25,21.69,21.69,0,0,1,653.56,23.52Zm10.23,19.54a.83.83,0,0,0,.82-.85,12.88,12.88,0,0,0-3.05-8.38,10.35,10.35,0,0,0-8.09-3.4,12.17,12.17,0,0,0-5.19,1.08,13.19,13.19,0,0,0-4,2.86,13.87,13.87,0,0,0-2.66,4.05,16.71,16.71,0,0,0-1.14,3.69.81.81,0,0,0,.8,1Z"/><path class="b" d="M683.62,28.92a3.81,3.81,0,0,1,3-3.72q2.91-.6,5.81-1a61.14,61.14,0,0,1,8.24-.6q9.18,0,13.87,4.74t4.69,15.2V66.36a4,4,0,0,1-4,4h0a4,4,0,0,1-4.05-4V45a27.16,27.16,0,0,0-.79-7.2,10.55,10.55,0,0,0-2.22-4.3,7.72,7.72,0,0,0-3.46-2.12,15.74,15.74,0,0,0-4.39-.59,36.83,36.83,0,0,0-4.2.25c-1.08.12-2.13.26-3.16.44a1.35,1.35,0,0,0-1.13,1.33V66.31a4.1,4.1,0,0,1-4.1,4.09h0a4.1,4.1,0,0,1-4.1-4.09Z"/><path class="c" d="M866,59a4.9,4.9,0,0,0-2-4,20.23,20.23,0,0,0-5-2.77c-2-.79-4.19-1.56-6.56-2.32A35.41,35.41,0,0,1,845.84,47a17.12,17.12,0,0,1-5-4.15,9.78,9.78,0,0,1-2-6.42,11.51,11.51,0,0,1,4.49-9.23q4.5-3.7,14.07-3.7a57.86,57.86,0,0,1,7.75.54c1.21.16,2.33.35,3.38.56a3.59,3.59,0,0,1,2.81,4.23h0c-.73,3.43-5.72,2.37-6.14,2.32-1.5-.21-6.45-.74-7.7-.74q-10.66,0-10.66,5.82a4.18,4.18,0,0,0,2,3.51,23.82,23.82,0,0,0,5.09,2.62c2,.79,4.24,1.59,6.61,2.42a37.32,37.32,0,0,1,6.62,3,18,18,0,0,1,5.08,4.29,9.86,9.86,0,0,1,2,6.37,11.1,11.1,0,0,1-4.84,9.63q-4.85,3.41-15.3,3.41a44.88,44.88,0,0,1-8.69-.79A39.24,39.24,0,0,1,841,69.55a3.72,3.72,0,0,1-2.43-4.29h0a3.71,3.71,0,0,1,4.86-2.73c1.08.38,2.19.72,3.32,1a30.89,30.89,0,0,0,8.15,1Q866,64.59,866,59Z"/><path class="a" d="M578.61,43.8a23.17,23.17,0,0,0-12-17.41,23.53,23.53,0,0,0-14.83-2.64,22.78,22.78,0,0,0-18.38,13,24.37,24.37,0,0,0-2.1,14.64,22.87,22.87,0,0,0,8.43,15.07,22,22,0,0,0,13.15,5A22.25,22.25,0,0,0,566.53,68a32.65,32.65,0,0,0,4.26-3.43c0,.78,0,1.57,0,2.35,0,3.19,2.68,4.71,5.34,4a3.84,3.84,0,0,0,2.79-4V48.54A30,30,0,0,0,578.61,43.8ZM567.1,58.57a15,15,0,0,1-11.59,5.48,15.51,15.51,0,0,1-11.16-3.88A15.92,15.92,0,0,1,539,49.89c-.1-.79-.12-1.58-.16-2.39.21-7,3.18-12.35,9.68-15.18a15.76,15.76,0,0,1,22,11.06A16.86,16.86,0,0,1,567.1,58.57Z"/><path class="d" d="M818.37,70.4a4.84,4.84,0,0,1-4.4-2.55c-.61-1.26-1.16-2.45-1.66-3.57-.83-1.84-1.63-3.68-2.42-5.52S808.32,55,807.53,53c-.65-1.64-1.38-3.48-2.2-5.5a.62.62,0,0,0-1.11,0c-.83,2-1.58,3.86-2.26,5.5-.83,2-1.63,3.93-2.42,5.78s-1.61,3.68-2.47,5.52c-.53,1.12-1.1,2.32-1.72,3.58A4.86,4.86,0,0,1,791,70.4h0a4.69,4.69,0,0,1-4.68-3.31q-2.6-10.46-4.39-20.72Q780.23,37,779.26,28.8c-.27-2.24,1.73-4.2,4.31-4.2h0a4.15,4.15,0,0,1,4.31,3.49c.13,1.37.27,2.72.41,4.06.27,2.47.58,5.05,1,7.75s.81,5.63,1.29,8.79c.41,2.62.85,5.52,1.34,8.69a.61.61,0,0,0,1.13.12c.84-1.87,1.58-3.56,2.2-5.06.83-2,1.58-3.85,2.25-5.63s1.33-3.58,2-5.43c.35-1,.73-2.12,1.12-3.29A4.59,4.59,0,0,1,805,35.16h0a4.58,4.58,0,0,1,4.45,3c.38,1.16.74,2.25,1.07,3.27.6,1.85,1.24,3.65,1.91,5.43l2.14,5.63c.57,1.5,1.24,3.16,2,5a.61.61,0,0,0,1.13-.1q.81-4.35,1.45-8.16.78-4.63,1.35-8.74t1-7.94c.18-1.5.34-3,.49-4.58a4,4,0,0,1,4.13-3.32h0c2.47,0,4.39,1.88,4.12,4s-.55,4.27-.86,6.53q-.79,5.63-1.92,11.55t-2.47,12q-1,4.31-2,8.38a4.69,4.69,0,0,1-4.68,3.31Z"/><path class="b" d="M751.59,23.52q9.28,0,14.32,5.77t5,17.52v.43a2.44,2.44,0,0,1-2.44,2.43H739.05a.82.82,0,0,0-.81.9q.69,6.45,4.61,9.91,4.2,3.71,11.8,3.71a33.53,33.53,0,0,0,7.41-.7l1-.23a3.48,3.48,0,0,1,4.3,2.83v0A3.45,3.45,0,0,1,764.85,70c-.7.2-1.5.41-2.4.61a38.84,38.84,0,0,1-8.69.89,27.45,27.45,0,0,1-10.41-1.83,19.84,19.84,0,0,1-11.9-12.53A29.61,29.61,0,0,1,730,47.6a27.62,27.62,0,0,1,1.88-10.66,21.82,21.82,0,0,1,4.93-7.5A20.24,20.24,0,0,1,743.69,25,21.78,21.78,0,0,1,751.59,23.52Zm10.23,19.54a.82.82,0,0,0,.81-.85,12.88,12.88,0,0,0-3-8.38,10.36,10.36,0,0,0-8.1-3.4,12.13,12.13,0,0,0-5.18,1.08,13.19,13.19,0,0,0-4,2.86,13.87,13.87,0,0,0-2.66,4.05,16.71,16.71,0,0,0-1.14,3.69.81.81,0,0,0,.8,1Z"/><path class="e" d="M517.92,39.63a34.4,34.4,0,0,1-.9,8.13,32.17,32.17,0,0,1-2.14,6.55c-.16.34-.15.35-.41.09L482.14,22.1a4.18,4.18,0,0,1-.4-.44,1.39,1.39,0,0,1,.13-1.93l2.8-2.8L496.23,5.38a.32.32,0,0,1,.48-.07,45.43,45.43,0,0,1,16.07,15.85,35,35,0,0,1,4.12,9.93,40.61,40.61,0,0,1,.68,4.26C517.76,36.85,517.84,38.36,517.92,39.63Z"/><path class="e" d="M439.38,26.2a1,1,0,0,0,.16.24l33.2,33.17a1.73,1.73,0,0,1,.62,1.2,1.41,1.41,0,0,1-.35,1l-.22.23q-7.65,7.64-15.3,15.3c-.19.18-.27.16-.43,0a136.21,136.21,0,0,1-11.91-14.36,53.47,53.47,0,0,1-5.45-9.63,31.32,31.32,0,0,1-2.15-7.78,45.07,45.07,0,0,1-.49-7.25,32.43,32.43,0,0,1,1.66-10.43c.18-.53.38-1.06.58-1.59Z"/><path class="e" d="M477.15,95a5.38,5.38,0,0,1-2.75-.8A8.54,8.54,0,0,1,472.82,93c-3.87-3.69-7.69-7.45-11.46-11.24-.27-.28-.54-.57-.82-.84-.09-.09-.11-.16,0-.23l.11-.12,15.22-15.2a3.64,3.64,0,0,1,.55-.48,1.32,1.32,0,0,1,1.59,0,3.62,3.62,0,0,1,.42.36l15.65,15.62c.16.17.17.26,0,.43q-4,4.13-8.15,8.14c-1.37,1.34-2.75,2.69-4.18,4a6.12,6.12,0,0,1-3.69,1.5A7.11,7.11,0,0,1,477.15,95Z"/><path class="e" d="M493.52,40.78a1.17,1.17,0,0,1-.26.7,2.79,2.79,0,0,1-.35.42L478.58,56.21a1.83,1.83,0,0,1-1,.62,1.49,1.49,0,0,1-1.37-.51l-6.14-6.14-6-6c-.76-.76-1.53-1.51-2.3-2.26a1.57,1.57,0,0,1,0-2.46l14.39-14.36a1.48,1.48,0,0,1,2.36,0L493,39.53A1.65,1.65,0,0,1,493.52,40.78Z"/><path class="e" d="M473.71,20.89a1.52,1.52,0,0,1-.3.79c-.1.12-.2.24-.31.35L458.66,36.46a1.49,1.49,0,0,1-1.61.45,1.73,1.73,0,0,1-.67-.45c-1.7-1.71-3.39-3.41-5.1-5.11l-9.47-9.44c-.28-.28-.28-.28-.07-.64A43,43,0,0,1,451,10.37a46.67,46.67,0,0,1,7.37-5.09.27.27,0,0,1,.4,0l14.32,14.31A1.73,1.73,0,0,1,473.71,20.89Z"/><path class="e" d="M481.19,60.62a1.62,1.62,0,0,1,.51-1.08l2.16-2.15,12.21-12.2c.12-.11.23-.23.36-.34a1.41,1.41,0,0,1,1.89,0c.11.09.21.19.31.29l13.61,13.58a.31.31,0,0,1,.06.46,94.16,94.16,0,0,1-8.08,11q-3.08,3.67-6.35,7.2c-.27.29-.27.3-.55,0L481.79,61.84A1.73,1.73,0,0,1,481.19,60.62Z"/><path class="e" d="M492.1,3c0,.12-.11.17-.18.24l-12.1,12.09-1.12,1.1a1.44,1.44,0,0,1-2.25,0c-2.2-2.18-4.38-4.37-6.57-6.56l-6.59-6.58a3.08,3.08,0,0,0-.28-.22C472.76-.9,482.42-1.11,492.1,3Z"/></svg>